<svg width="512" height="512" viewBox="0 0 512 512" xmlns="http://www.w3.org/2000/svg">
  <defs>
    <radialGradient id="bg" cx="50%" cy="35%" r="70%">
      <stop offset="0%" stop-color="#1d101a" />
      <stop offset="100%" stop-color="#0a060a" />
    </radialGradient>
    <linearGradient id="dress" x1="0%" y1="0%" x2="0%" y2="100%">
      <stop offset="0%" stop-color="#7a1017" />
      <stop offset="100%" stop-color="#33090c" />
    </linearGradient>
    <linearGradient id="skin" x1="0%" y1="0%" x2="100%" y2="100%">
      <stop offset="0%" stop-color="#d9c8c8" />
      <stop offset="100%" stop-color="#b6a4a4" />
    </linearGradient>
  </defs>
  <rect width="512" height="512" fill="url(#bg)" rx="256" ry="256" />
  <rect x="132" y="180" width="248" height="240" rx="70" fill="url(#dress)" stroke="#b12024" stroke-width="6" />
  <path d="M132 290 Q256 330 380 290" fill="#5c0d13" opacity="0.8" />
  <path d="M210 180 Q256 130 302 180 L290 220 Q256 210 222 220 Z" fill="#520c13" />
  <circle cx="256" cy="190" r="70" fill="#201416" stroke="#5d0a12" stroke-width="6" />
  <ellipse cx="232" cy="186" rx="18" ry="12" fill="url(#skin)" />
  <ellipse cx="280" cy="186" rx="18" ry="12" fill="url(#skin)" />
  <circle cx="232" cy="186" r="5" fill="#7a0a0f" />
  <circle cx="280" cy="186" r="5" fill="#7a0a0f" />
  <path d="M226 210 Q256 224 286 210" stroke="#c4b1b1" stroke-width="6" fill="none" stroke-linecap="round" />
  <path d="M240 230 Q256 238 272 230" stroke="#9f8c8c" stroke-width="5" fill="none" />
  <path d="M236 248 Q256 254 276 248" stroke="#d9c8c8" stroke-width="10" stroke-linecap="round" />
  <path d="M202 270 Q256 350 310 270" stroke="#d9c8c8" stroke-width="12" stroke-linecap="round" />
  <path d="M186 228 Q196 200 220 198 M292 198 Q316 200 326 228" stroke="#c4b1b1" stroke-width="8" stroke-linecap="round" />
  <path d="M170 308 Q256 360 342 308" stroke="#d9c8c8" stroke-width="12" stroke-linecap="round" />
  <path d="M152 236 Q182 200 210 196" stroke="#801017" stroke-width="8" stroke-linecap="round" />
  <path d="M360 236 Q330 200 302 196" stroke="#801017" stroke-width="8" stroke-linecap="round" />
  <rect x="180" y="370" width="152" height="40" rx="16" fill="#26080b" stroke="#b12024" stroke-width="4" />
  <circle cx="334" cy="256" r="22" fill="#2d0b10" stroke="#b12024" stroke-width="4" />
  <rect x="322" y="236" width="8" height="28" rx="4" fill="#d9c8c8" />
  <rect x="332" y="262" width="18" height="12" rx="5" fill="#d9c8c8" />
</svg>
