<svg width="512" height="512" viewBox="0 0 512 512" xmlns="http://www.w3.org/2000/svg">
  <defs>
    <radialGradient id="bg" cx="50%" cy="35%" r="75%">
      <stop offset="0%" stop-color="#15132d" />
      <stop offset="100%" stop-color="#060512" />
    </radialGradient>
    <linearGradient id="cloth" x1="0%" y1="0%" x2="100%" y2="0%">
      <stop offset="0%" stop-color="#5e1e9c" />
      <stop offset="100%" stop-color="#e22c38" />
    </linearGradient>
    <linearGradient id="accents" x1="0%" y1="0%" x2="0%" y2="100%">
      <stop offset="0%" stop-color="#f0ca30" />
      <stop offset="100%" stop-color="#c9971d" />
    </linearGradient>
  </defs>
  <rect width="512" height="512" fill="url(#bg)" rx="256" ry="256" />
  <circle cx="256" cy="256" r="186" fill="#0e0c1f" opacity="0.85" />
  <path d="M140 240 Q256 110 372 240" fill="url(#cloth)" stroke="#f0ca30" stroke-width="6" stroke-linecap="round" />
  <path d="M170 226 Q256 176 342 226" stroke="#f0ca30" stroke-width="10" stroke-linecap="round" />
  <path d="M190 274 Q256 330 322 274" fill="#d82630" stroke="#f0ca30" stroke-width="5" />
  <circle cx="214" cy="270" r="18" fill="#0f132b" stroke="#f0ca30" stroke-width="4" />
  <circle cx="298" cy="270" r="18" fill="#0f132b" stroke="#f0ca30" stroke-width="4" />
  <circle cx="214" cy="270" r="6" fill="#f42828" />
  <circle cx="298" cy="270" r="6" fill="#f42828" />
  <path d="M214 310 Q256 330 298 310" stroke="#f0ca30" stroke-width="8" fill="none" stroke-linecap="round" />
  <path d="M236 242 Q256 252 276 242" stroke="#f42828" stroke-width="8" stroke-linecap="round" />
  <path d="M236 224 Q256 230 276 224" stroke="#f0ca30" stroke-width="12" stroke-linecap="round" />
  <path d="M256 118 Q236 156 256 170 Q276 156 256 118 Z" fill="#f0ca30" />
  <circle cx="200" cy="150" r="16" fill="#e22c38" stroke="#f0ca30" stroke-width="5" />
  <circle cx="312" cy="150" r="16" fill="#e22c38" stroke="#f0ca30" stroke-width="5" />
  <path d="M176 186 Q190 148 214 166" stroke="#f0ca30" stroke-width="8" stroke-linecap="round" />
  <path d="M336 186 Q322 148 298 166" stroke="#f0ca30" stroke-width="8" stroke-linecap="round" />
  <path d="M206 340 Q256 370 306 340" stroke="#f0ca30" stroke-width="12" stroke-linecap="round" />
  <rect x="212" y="344" width="88" height="42" rx="12" fill="#0f132b" stroke="#f0ca30" stroke-width="6" />
  <path d="M176 220 Q156 200 142 214 Q152 238 176 220 Z" fill="#f0ca30" />
  <path d="M336 220 Q356 200 370 214 Q360 238 336 220 Z" fill="#f0ca30" />
</svg>
